<?xml version="1.0" standalone="no"?><!DOCTYPE svg PUBLIC "-//W3C//DTD SVG 1.1//EN" "http://www.w3.org/Graphics/SVG/1.1/DTD/svg11.dtd"><svg t="1573661260358" class="icon" viewBox="0 0 1024 1024" version="1.1" xmlns="http://www.w3.org/2000/svg" p-id="2182" xmlns:xlink="http://www.w3.org/1999/xlink" width="200" height="200"><defs><style type="text/css"></style></defs><path d="M504.032 690.32l0 5.648 31.84 0 0-5.424c1.28-0.848 2.528-1.456 3.824-2.56 13.104-11.264 140.496-116.496 140.496-116.496l-21.664-17.952-122.656 100.672 0.016-422.32-31.856 0 0 420.304-121.984-100.112-22.016 18.592 140.992 117.312C501.024 687.968 502.144 689.008 504.032 690.32z" p-id="2183"></path><path d="M775.84 621.152l0 101.312c0 34.56-23.184 69.568-56.416 69.568l-411.312-0.256c-24.544 0-44.064-22.544-44.064-47.056l0-122.976L232.16 621.744l0 131.664c0 36.624 33.936 70.496 67.44 70.496l434.448 0c52.384 0 73.952-25.568 73.952-79.904l0-122.848L775.84 621.152z" p-id="2184"></path></svg>